<?xml version="1.0" encoding="UTF-8" standalone="no"?>
<svg
   xmlns:dc="http://purl.org/dc/elements/1.1/"
   xmlns:cc="http://creativecommons.org/ns#"
   xmlns:rdf="http://www.w3.org/1999/02/22-rdf-syntax-ns#"
   xmlns:svg="http://www.w3.org/2000/svg"
   xmlns="http://www.w3.org/2000/svg"
   xmlns:sodipodi="http://sodipodi.sourceforge.net/DTD/sodipodi-0.dtd"
   xmlns:inkscape="http://www.inkscape.org/namespaces/inkscape"
   viewBox="0 0 708 132"
   height="132"
   width="708"
   xml:space="preserve"
   id="svg2"
   version="1.1"
   inkscape:version="0.91 r"
   sodipodi:docname="kanteronlogo.svg"><sodipodi:namedview
     pagecolor="#ffffff"
     bordercolor="#666666"
     borderopacity="1"
     objecttolerance="10"
     gridtolerance="10"
     guidetolerance="10"
     inkscape:pageopacity="0"
     inkscape:pageshadow="2"
     inkscape:window-width="1143"
     inkscape:window-height="758"
     id="namedview24"
     showgrid="false"
     inkscape:zoom="0.43502825"
     inkscape:cx="354"
     inkscape:cy="66"
     inkscape:window-x="0"
     inkscape:window-y="0"
     inkscape:window-maximized="0"
     inkscape:current-layer="svg2" /><metadata
     id="metadata8"><rdf:RDF><cc:Work
         rdf:about=""><dc:format>image/svg+xml</dc:format><dc:type
           rdf:resource="http://purl.org/dc/dcmitype/StillImage" /></cc:Work></rdf:RDF></metadata><defs
     id="defs6" /><g
     id="g12"
     transform="matrix(0.13333333,0,0,-0.13333333,0,132)"><path
       inkscape:connector-curvature="0"
       d="m 1310.92,989.004 65.85,0 0,-503.606 -65.85,0 z m 69.1,-334.652 150.15,160.996 78.14,0 -144.71,-160.996 174.74,-168.954 -88.64,0 -169.68,168.954"
       style="fill:#a7a5a6;fill-opacity:1;fill-rule:evenodd;stroke:none"
       id="path14" /><path
       inkscape:connector-curvature="0"
       d="m 2017,684.742 0,18.453 c 0,39.547 -20.15,59.321 -60.42,59.332 -39.8,0 -75.87,-18.699 -108.18,-56.078 l 0,71.633 c 26.29,29.418 63.79,44.129 112.52,44.141 38.82,0 68.85,-10.02 90.08,-30.028 21.23,-20.023 31.83,-47.035 31.84,-81.043 l 0,-166.058 c 0,-12.551 3.98,-18.813 11.94,-18.813 4.82,0 16.63,5.301 35.45,15.918 l 0,-39.797 c -26.04,-15.918 -47.39,-23.879 -64.03,-23.879 -28.22,0 -44.99,11.579 -50.29,34.735 -28.22,-23.156 -58.13,-34.735 -89.72,-34.735 -24.6,0 -44.75,7.961 -60.42,23.879 -15.68,16.157 -23.52,35.082 -23.52,56.801 0,20.496 6.39,38.824 19.18,54.992 13.02,16.395 47.27,33.996 102.75,52.821 z m 0,-36.176 -40.89,-15.558 c -44.62,-16.641 -66.93,-37.391 -66.93,-62.227 0,-12.789 4.46,-23.515 13.39,-32.199 8.92,-8.684 20.61,-13.023 35.09,-13.023 22.91,0 42.68,8.918 59.34,26.769 l 0,96.238"
       style="fill:#a7a5a6;fill-opacity:1;fill-rule:evenodd;stroke:none"
       id="path16" /><path
       inkscape:connector-curvature="0"
       d="m 2372.86,485.398 0,329.95 65.84,0 0,-45.223 c 25.33,34.73 59.34,52.098 102.03,52.098 34.73,0 62.1,-12.067 82.12,-36.18 20.01,-24.125 30.02,-56.801 30.03,-98.043 l 0,-202.602 -65.84,0 0,203.325 c 0,25.078 -5.56,44.851 -16.65,59.332 -11.1,14.472 -27.02,21.707 -47.75,21.707 -28.71,0 -56.69,-15.918 -83.94,-47.754 l 0,-236.61 -65.84,0"
       style="fill:#a7a5a6;fill-opacity:1;fill-rule:nonzero;stroke:none"
       id="path18" /><path
       inkscape:connector-curvature="0"
       d="m 2894.06,762.891 123.37,121.918 0,-69.461 104.19,0 0,-59.696 -104.19,0 0,-166.422 c 0,-34.007 15.55,-51.011 46.67,-51.011 26.04,0 51.01,7.711 74.89,23.156 l 0,-61.145 c -23.16,-14.468 -50.05,-21.707 -80.68,-21.707 -32.81,0 -58.86,8.797 -78.15,26.415 -19.06,17.839 -28.58,40.507 -28.58,68.011 l 0,182.703 -57.52,0 0,7.239"
       style="fill:#a7a5a6;fill-opacity:1;fill-rule:nonzero;stroke:none"
       id="path20" /><path
       inkscape:connector-curvature="0"
       d="m 3656.93,582.719 0,-64.399 c -17.13,-11.101 -35.7,-20.508 -55.72,-28.218 -19.78,-7.711 -43.9,-11.567 -72.35,-11.579 -48.73,0 -87.92,16.758 -117.58,50.289 -29.67,33.762 -44.5,75.602 -44.5,125.54 0,48.957 14.11,89.113 42.33,120.476 28.21,31.586 65.35,47.383 111.43,47.395 46.3,0 81.64,-15.918 106,-47.758 24.35,-31.836 36.53,-76.586 36.54,-134.223 l -231.54,0 c 12.3,-68.015 48.95,-102.023 109.98,-102.023 36.65,0 75.13,14.836 115.41,44.5 z m -58.61,100.937 c 0,21.707 -6.87,40.274 -20.62,55.715 -13.75,15.434 -32.56,23.145 -56.44,23.156 -50.41,0 -79.96,-26.297 -88.64,-78.871 l 165.7,0"
       style="fill:#a7a5a6;fill-opacity:1;fill-rule:evenodd;stroke:none"
       id="path22" /><path
       inkscape:connector-curvature="0"
       d="m 3938.99,485.398 0,329.95 65.84,0 0,-78.145 c 4.35,7.235 12.78,19.41 25.33,36.539 13.75,18.563 26.52,31.227 38.35,37.988 11.81,6.989 23.5,10.481 35.09,10.493 26.52,0 53.42,-12.914 80.68,-38.711 l -35.09,-57.164 c -23.64,21.707 -44.75,32.562 -63.31,32.562 -21.72,0 -40.65,-10.019 -56.81,-30.031 -16.16,-19.781 -24.24,-44.262 -24.24,-73.441 l 0,-170.04 -65.84,0"
       style="fill:#a7a5a6;fill-opacity:1;fill-rule:nonzero;stroke:none"
       id="path24" /><path
       inkscape:connector-curvature="0"
       d="m 4403.75,652.906 c 0,47.508 16.75,87.539 50.29,120.114 33.52,32.796 75.72,49.191 126.62,49.203 51.38,0 94.07,-15.918 128.07,-47.758 34.25,-31.836 51.37,-72.356 51.38,-121.559 0,-53.308 -17,-95.761 -51.01,-127.347 -33.78,-31.364 -76.59,-47.024 -128.44,-47.036 -51.62,0 -94.06,16.282 -127.35,48.844 -33.04,32.797 -49.56,74.641 -49.56,125.539 z m 66.93,1.086 c 0,-35.457 10,-63.676 30.03,-84.66 20.01,-20.746 46.18,-31.113 78.5,-31.113 36.42,0 64.52,10.492 84.3,31.476 19.78,21.223 29.66,48.953 29.67,83.211 0,32.074 -10.98,58.36 -32.93,78.867 -21.7,20.5 -48.72,30.743 -81.04,30.754 -32.32,0 -58.49,-10.379 -78.5,-31.113 -20.03,-20.746 -30.03,-46.559 -30.03,-77.422"
       style="fill:#f17922;fill-opacity:1;fill-rule:evenodd;stroke:none"
       id="path26" /><path
       inkscape:connector-curvature="0"
       d="m 5026.97,485.398 0,329.95 65.85,0 0,-45.223 c 25.32,34.73 59.33,52.098 102.02,52.098 34.73,0 62.1,-12.067 82.12,-36.18 20.02,-24.125 30.02,-56.801 30.03,-98.043 l 0,-202.602 -65.84,0 0,203.325 c 0,25.078 -5.55,44.851 -16.64,59.332 -11.1,14.472 -27.03,21.707 -47.76,21.707 -28.7,0 -56.69,-15.918 -83.93,-47.754 l 0,-236.61 -65.85,0"
       style="fill:#a7a5a6;fill-opacity:1;fill-rule:nonzero;stroke:none"
       id="path28" /><path
       inkscape:connector-curvature="0"
       d="m 1412.16,288.676 0,-22.043 c -19.41,13.031 -36.88,19.539 -52.41,19.547 -11.51,0 -21.21,-3.118 -29.11,-9.36 -7.91,-6.238 -11.86,-13.929 -11.86,-23.082 0,-6.515 2.36,-12.547 7.07,-18.09 4.85,-5.41 18.09,-12.269 39.72,-20.589 21.77,-8.321 35.97,-16.989 42.64,-25.997 6.65,-9.011 9.98,-19.066 9.98,-30.152 0,-14.836 -6.03,-27.387 -18.1,-37.64 -12.05,-10.125 -26.97,-15.176 -44.71,-15.184 -19.27,0 -38.4,5.824 -57.39,17.469 l 0,19.965 c 22.59,-11.645 42.62,-17.469 60.1,-17.469 11.78,0 21.41,3.121 28.9,9.359 7.63,6.238 11.44,14.207 11.44,23.914 0,6.656 -2.49,12.75 -7.48,18.301 -4.86,5.68 -18.17,12.824 -39.93,21.422 -21.63,8.59 -35.71,17.043 -42.22,25.371 -6.38,8.453 -9.57,17.812 -9.57,28.074 0,14.555 5.97,26.891 17.89,37.016 12.06,10.254 26.68,15.383 43.88,15.39 15.66,0 32.71,-5.41 51.16,-16.222"
       style="fill:#a7a5a6;fill-opacity:1;fill-rule:nonzero;stroke:none"
       id="path30" /><path
       inkscape:connector-curvature="0"
       d="m 2066.85,301.152 -143.08,-289.2692 -20.8,0 66.76,134.9652 -80.48,154.304 21.42,0 69.46,-133.925 65.92,133.925 20.8,0"
       style="fill:#a7a5a6;fill-opacity:1;fill-rule:nonzero;stroke:none"
       id="path32" /><path
       inkscape:connector-curvature="0"
       d="m 2651.46,288.676 0,-22.043 c -19.42,13.031 -36.89,19.539 -52.41,19.547 -11.51,0 -21.21,-3.118 -29.12,-9.36 -7.9,-6.238 -11.85,-13.929 -11.85,-23.082 0,-6.515 2.35,-12.547 7.07,-18.09 4.85,-5.41 18.09,-12.269 39.72,-20.589 21.77,-8.321 35.97,-16.989 42.63,-25.997 6.66,-9.011 9.98,-19.066 9.98,-30.152 0,-14.836 -6.02,-27.387 -18.09,-37.64 -12.06,-10.125 -26.97,-15.176 -44.71,-15.184 -19.27,0 -38.41,5.824 -57.39,17.469 l 0,19.965 c 22.59,-11.645 42.62,-17.469 60.09,-17.469 11.79,0 21.42,3.121 28.91,9.359 7.62,6.238 11.43,14.207 11.44,23.914 0,6.656 -2.5,12.75 -7.49,18.301 -4.85,5.68 -18.16,12.824 -39.93,21.422 -21.62,8.59 -35.7,17.043 -42.21,25.371 -6.39,8.453 -9.57,17.812 -9.57,28.074 0,14.555 5.96,26.891 17.89,37.016 12.06,10.254 26.68,15.383 43.88,15.39 15.66,0 32.71,-5.41 51.16,-16.222"
       style="fill:#a7a5a6;fill-opacity:1;fill-rule:nonzero;stroke:none"
       id="path34" /><path
       inkscape:connector-curvature="0"
       d="m 3189.89,364.582 0,-63.43 53.66,0 0,-16.636 -53.66,0 0,-113.754 c 0,-18.301 1.46,-30.36 4.37,-36.184 3.05,-5.687 11.09,-8.527 24.13,-8.527 9.98,0 21.62,3.121 34.93,9.359 l 0,-19.547 c -13.45,-6.511 -26.62,-9.769 -39.51,-9.777 -12.62,0 -23.15,3.609 -31.61,10.816 -8.46,7.207 -12.68,17.188 -12.68,29.946 l 0,137.668 -51.58,0 0,16.636 51.58,0 0,45.543 13.93,17.887 6.44,0"
       style="fill:#a7a5a6;fill-opacity:1;fill-rule:nonzero;stroke:none"
       id="path36" /><path
       inkscape:connector-curvature="0"
       d="m 3899.49,212.562 -150.78,0 c -0.41,-3.328 -0.62,-6.652 -0.62,-9.98 0,-21.355 7.62,-39.449 22.88,-54.277 15.24,-14.84 33.26,-22.254 54.07,-22.254 24.26,0 47.96,9.496 71.12,28.492 l 0,-23.086 c -21.91,-16.914 -46.45,-25.363 -73.62,-25.371 -27.59,0 -50.4,9.566 -68.42,28.699 -18.03,19.133 -27.03,43.465 -27.03,72.996 0,28 8.32,51.149 24.95,69.457 16.64,18.438 37.57,27.653 62.81,27.66 23.7,0 43.73,-8.32 60.1,-24.957 16.35,-16.5 24.53,-38.961 24.54,-67.379 z m -148.07,16.43 123.94,0 c -7.21,37.289 -27.38,55.934 -60.51,55.942 -15.67,0 -29.26,-4.926 -40.76,-14.766 -11.38,-9.711 -18.93,-23.434 -22.67,-41.176"
       style="fill:#a7a5a6;fill-opacity:1;fill-rule:evenodd;stroke:none"
       id="path38" /><path
       inkscape:connector-curvature="0"
       d="m 4415.47,301.152 0,-33.687 0.83,0 c 15.52,24.953 35.83,37.433 60.93,37.433 29.25,0 49.84,-15.324 61.77,-45.96 18.02,30.636 40.2,45.953 66.54,45.96 19.82,0 35.84,-7.07 48.04,-21.214 12.2,-14.141 18.3,-32.926 18.3,-56.356 l 0,-117.496 -20.38,0 0,108.555 c 0,20.652 -4.36,36.875 -13.1,48.66 -8.74,11.918 -21,17.879 -36.81,17.887 -11.79,0 -22.04,-3.536 -30.78,-10.606 -8.73,-7.07 -17.74,-18.445 -27.03,-34.105 l 0,-130.391 -20.59,0 0,108.969 c 0,21.215 -4.57,37.5 -13.73,48.871 -9.01,11.504 -21.14,17.254 -36.39,17.262 -22.18,0 -41.38,-13.661 -57.6,-40.969 l 0,-134.133 -20.38,0 0,191.32 20.38,0"
       style="fill:#a7a5a6;fill-opacity:1;fill-rule:nonzero;stroke:none"
       id="path40" /><path
       inkscape:connector-curvature="0"
       d="m 5284.98,288.676 0,-22.043 c -19.41,13.031 -36.88,19.539 -52.41,19.547 -11.5,0 -21.21,-3.118 -29.11,-9.36 -7.9,-6.238 -11.85,-13.929 -11.85,-23.082 0,-6.515 2.35,-12.547 7.07,-18.09 4.84,-5.41 18.08,-12.269 39.72,-20.589 21.76,-8.321 35.97,-16.989 42.63,-25.997 6.65,-9.011 9.98,-19.066 9.98,-30.152 0,-14.836 -6.03,-27.387 -18.09,-37.64 -12.06,-10.125 -26.97,-15.176 -44.71,-15.184 -19.28,0 -38.41,5.824 -57.4,17.469 l 0,19.965 c 22.6,-11.645 42.62,-17.469 60.1,-17.469 11.78,0 21.41,3.121 28.91,9.359 7.62,6.238 11.43,14.207 11.43,23.914 0,6.656 -2.49,12.75 -7.48,18.301 -4.86,5.68 -18.16,12.824 -39.93,21.422 -21.63,8.59 -35.7,17.043 -42.22,25.371 -6.38,8.453 -9.56,17.812 -9.56,28.074 0,14.555 5.96,26.891 17.88,37.016 12.06,10.254 26.68,15.383 43.88,15.39 15.66,0 32.72,-5.41 51.16,-16.222"
       style="fill:#a7a5a6;fill-opacity:1;fill-rule:nonzero;stroke:none"
       id="path42" /><path
       inkscape:connector-curvature="0"
       d="m 29.4141,506.785 c -42.3243,73.301 -17.2071,167.027 56.0898,209.348 73.3051,42.32 167.0311,17.207 209.3511,-56.094 10.821,-18.734 17.594,-40.668 19.75,-62.187 -11.386,-202.77 -25.386,-212.856 155.711,-301.633 30.93,-12.11 58.196,-34.875 76.032,-65.77 C 588.668,157.148 563.555,63.4219 490.254,21.1016 416.953,-21.2188 323.223,3.89062 280.902,77.1953 c -14.148,24.5037 -20.757,51.9807 -20.527,78.4417 10.383,195.199 26.766,206.25 -151.602,284.164 -32.2847,11.976 -60.8003,34.836 -79.3589,66.984"
       style="fill:#f17922;fill-opacity:1;fill-rule:nonzero;stroke:none"
       id="path44" /><path
       inkscape:connector-curvature="0"
       d="M 701.609,777.961 C 558.699,645.75 652.23,460.605 848.172,500.434 880.5,508 899.051,513.18 925.688,506.043 988.891,489.109 1026.4,424.145 1009.46,360.938 992.527,297.734 927.562,260.227 864.359,277.164 843.23,282.824 824.594,294.23 810.258,308.82 709.438,420.965 712.129,436.137 572.934,381.633 550.648,371.168 525.176,367.59 499.523,372.77 l -7.476,1.75 c -24.199,6.484 -44.652,20.031 -59.715,37.816 -25.836,31.387 -35.586,70.375 -25.305,108.742 4.328,16.156 10.25,26.387 23.2,44.793 11.062,12.977 124.984,117.832 79.769,250.004 -10.289,23.531 -12.746,50.879 -5.609,77.516 16.933,63.203 81.898,100.711 145.101,83.777 63.203,-16.938 100.715,-81.902 83.778,-145.106 -5.661,-21.128 -17.067,-39.761 -31.657,-54.101"
       style="fill:#f17922;fill-opacity:1;fill-rule:nonzero;stroke:none"
       id="path46" /></g></svg>